<svg xmlns="http://www.w3.org/2000/svg" xmlns:xlink="http://www.w3.org/1999/xlink" width="200" zoomAndPan="magnify" viewBox="0 0 150 37.5" height="50" preserveAspectRatio="xMidYMid meet" version="1.0"><defs><g/><clipPath id="49c4964a48"><path d="M 2.285156 3.699219 L 30.410156 3.699219 L 30.410156 31.824219 L 2.285156 31.824219 Z M 2.285156 3.699219 " clip-rule="nonzero"/></clipPath><clipPath id="16cb892363"><path d="M 73 36 L 74 36 L 74 37.007812 L 73 37.007812 Z M 73 36 " clip-rule="nonzero"/></clipPath></defs><g clip-path="url(#49c4964a48)"><path fill="#ffffff" d="M 16.347656 3.964844 C 8.578125 3.964844 2.285156 10.257812 2.285156 18.027344 C 2.285156 24.25 6.308594 29.503906 11.898438 31.367188 C 12.601562 31.492188 12.867188 31.070312 12.867188 30.699219 C 12.867188 30.367188 12.847656 29.257812 12.847656 28.082031 C 9.316406 28.730469 8.402344 27.21875 8.121094 26.429688 C 7.960938 26.023438 7.277344 24.777344 6.679688 24.441406 C 6.1875 24.179688 5.484375 23.527344 6.660156 23.511719 C 7.769531 23.492188 8.558594 24.53125 8.824219 24.953125 C 10.089844 27.078125 12.109375 26.480469 12.917969 26.113281 C 13.042969 25.199219 13.410156 24.582031 13.816406 24.230469 C 10.6875 23.878906 7.417969 22.667969 7.417969 17.289062 C 7.417969 15.757812 7.960938 14.492188 8.859375 13.507812 C 8.71875 13.15625 8.226562 11.714844 9 9.78125 C 9 9.78125 10.175781 9.414062 12.867188 11.222656 C 13.992188 10.90625 15.1875 10.75 16.382812 10.75 C 17.578125 10.75 18.773438 10.90625 19.898438 11.222656 C 22.585938 9.394531 23.765625 9.78125 23.765625 9.78125 C 24.539062 11.714844 24.046875 13.15625 23.90625 13.507812 C 24.800781 14.492188 25.347656 15.742188 25.347656 17.289062 C 25.347656 22.683594 22.058594 23.878906 18.929688 24.230469 C 19.441406 24.671875 19.878906 25.515625 19.878906 26.832031 C 19.878906 28.714844 19.863281 30.226562 19.863281 30.699219 C 19.863281 31.070312 20.125 31.507812 20.828125 31.367188 C 21.523438 31.132812 22.195312 30.847656 22.84375 30.507812 C 23.492188 30.167969 24.113281 29.78125 24.703125 29.347656 C 25.289062 28.910156 25.839844 28.433594 26.355469 27.910156 C 26.871094 27.390625 27.339844 26.832031 27.765625 26.238281 C 28.195312 25.644531 28.574219 25.019531 28.902344 24.367188 C 29.230469 23.710938 29.507812 23.035156 29.734375 22.339844 C 29.957031 21.644531 30.125 20.933594 30.238281 20.210938 C 30.351562 19.488281 30.410156 18.757812 30.410156 18.027344 C 30.410156 10.257812 24.117188 3.964844 16.347656 3.964844 Z M 16.347656 3.964844 " fill-opacity="1" fill-rule="nonzero"/></g><g clip-path="url(#16cb892363)"><g fill="#000000" fill-opacity="1"><g transform="translate(72.986393, 37.974668)"><g><path d="M 0.34375 0.015625 C 0.300781 0.015625 0.257812 0.0078125 0.21875 0 C 0.1875 -0.0195312 0.160156 -0.046875 0.140625 -0.078125 C 0.117188 -0.109375 0.101562 -0.140625 0.09375 -0.171875 C 0.0820312 -0.210938 0.078125 -0.257812 0.078125 -0.3125 C 0.078125 -0.375 0.0820312 -0.429688 0.09375 -0.484375 C 0.113281 -0.546875 0.140625 -0.597656 0.171875 -0.640625 C 0.210938 -0.691406 0.253906 -0.726562 0.296875 -0.75 C 0.347656 -0.78125 0.398438 -0.796875 0.453125 -0.796875 C 0.492188 -0.796875 0.53125 -0.785156 0.5625 -0.765625 C 0.601562 -0.753906 0.632812 -0.734375 0.65625 -0.703125 C 0.675781 -0.679688 0.691406 -0.648438 0.703125 -0.609375 C 0.722656 -0.566406 0.734375 -0.519531 0.734375 -0.46875 C 0.734375 -0.414062 0.722656 -0.359375 0.703125 -0.296875 C 0.679688 -0.234375 0.65625 -0.175781 0.625 -0.125 C 0.59375 -0.0820312 0.550781 -0.046875 0.5 -0.015625 C 0.445312 0.00390625 0.394531 0.015625 0.34375 0.015625 Z M 0.34375 -0.0625 C 0.382812 -0.0625 0.421875 -0.0703125 0.453125 -0.09375 C 0.492188 -0.125 0.523438 -0.15625 0.546875 -0.1875 C 0.578125 -0.226562 0.597656 -0.269531 0.609375 -0.3125 C 0.628906 -0.363281 0.640625 -0.414062 0.640625 -0.46875 C 0.640625 -0.539062 0.625 -0.597656 0.59375 -0.640625 C 0.5625 -0.691406 0.515625 -0.71875 0.453125 -0.71875 C 0.410156 -0.71875 0.367188 -0.707031 0.328125 -0.6875 C 0.296875 -0.664062 0.265625 -0.632812 0.234375 -0.59375 C 0.210938 -0.550781 0.195312 -0.503906 0.1875 -0.453125 C 0.175781 -0.410156 0.171875 -0.367188 0.171875 -0.328125 C 0.171875 -0.285156 0.171875 -0.25 0.171875 -0.21875 C 0.179688 -0.1875 0.191406 -0.160156 0.203125 -0.140625 C 0.222656 -0.117188 0.242188 -0.0976562 0.265625 -0.078125 C 0.285156 -0.0664062 0.3125 -0.0625 0.34375 -0.0625 Z M 0.125 -0.84375 L 0.09375 -0.90625 L 0.296875 -1.03125 L 0.328125 -0.96875 Z M 0.125 -0.84375 "/></g></g></g></g><g fill="#000000" fill-opacity="1"><g transform="translate(147.275917, 9.721292)"><g/></g></g><g fill="#ffffff" fill-opacity="1"><g transform="translate(37.321114, 22.62471)"><g><path d="M 5.140625 -1.34375 C 5.628906 -1.34375 6.101562 -1.414062 6.5625 -1.5625 C 7.03125 -1.707031 7.390625 -1.890625 7.640625 -2.109375 L 7.640625 -3.359375 L 5.4375 -3.359375 L 5.4375 -4.75 L 9.359375 -4.75 L 9.359375 -1.4375 C 8.878906 -0.945312 8.257812 -0.5625 7.5 -0.28125 C 6.738281 -0.0078125 5.9375 0.125 5.09375 0.125 C 3.632812 0.125 2.507812 -0.28125 1.71875 -1.09375 C 0.925781 -1.90625 0.53125 -3.054688 0.53125 -4.546875 C 0.53125 -6.023438 0.925781 -7.15625 1.71875 -7.9375 C 2.507812 -8.726562 3.648438 -9.125 5.140625 -9.125 C 7.253906 -9.125 8.597656 -8.34375 9.171875 -6.78125 L 7.4375 -6.265625 C 7.25 -6.722656 6.953125 -7.066406 6.546875 -7.296875 C 6.148438 -7.535156 5.679688 -7.65625 5.140625 -7.65625 C 4.253906 -7.65625 3.582031 -7.382812 3.125 -6.84375 C 2.664062 -6.3125 2.4375 -5.546875 2.4375 -4.546875 C 2.4375 -3.523438 2.671875 -2.734375 3.140625 -2.171875 C 3.617188 -1.617188 4.285156 -1.34375 5.140625 -1.34375 Z M 5.140625 -1.34375 "/></g></g></g><g fill="#ffffff" fill-opacity="1"><g transform="translate(47.616585, 22.62471)"><g><path d="M 0.875 0 L 0.875 -9 L 2.765625 -9 L 2.765625 0 Z M 0.875 0 "/></g></g></g><g fill="#ffffff" fill-opacity="1"><g transform="translate(51.378081, 22.62471)"><g><path d="M 4.9375 -7.546875 L 4.9375 0 L 3.046875 0 L 3.046875 -7.546875 L 0.140625 -7.546875 L 0.140625 -9 L 7.84375 -9 L 7.84375 -7.546875 Z M 4.9375 -7.546875 "/></g></g></g><g fill="#ffffff" fill-opacity="1"><g transform="translate(59.491307, 22.62471)"><g><path d="M 6.671875 0 L 6.671875 -3.859375 L 2.765625 -3.859375 L 2.765625 0 L 0.875 0 L 0.875 -9 L 2.765625 -9 L 2.765625 -5.421875 L 6.671875 -5.421875 L 6.671875 -9 L 8.5625 -9 L 8.5625 0 Z M 6.671875 0 "/></g></g></g><g fill="#ffffff" fill-opacity="1"><g transform="translate(69.059362, 22.62471)"><g><path d="M 4.609375 0.125 C 3.378906 0.125 2.429688 -0.175781 1.765625 -0.78125 C 1.109375 -1.382812 0.78125 -2.25 0.78125 -3.375 L 0.78125 -9 L 2.671875 -9 L 2.671875 -3.515625 C 2.671875 -2.804688 2.835938 -2.265625 3.171875 -1.890625 C 3.515625 -1.523438 4.015625 -1.34375 4.671875 -1.34375 C 5.335938 -1.34375 5.851562 -1.535156 6.21875 -1.921875 C 6.582031 -2.304688 6.765625 -2.859375 6.765625 -3.578125 L 6.765625 -9 L 8.640625 -9 L 8.640625 -3.46875 C 8.640625 -2.320312 8.285156 -1.4375 7.578125 -0.8125 C 6.878906 -0.1875 5.890625 0.125 4.609375 0.125 Z M 4.609375 0.125 "/></g></g></g><g fill="#ffffff" fill-opacity="1"><g transform="translate(78.627416, 22.62471)"><g><path d="M 8.84375 -2.5625 C 8.84375 -1.75 8.535156 -1.117188 7.921875 -0.671875 C 7.316406 -0.222656 6.46875 0 5.375 0 L 0.875 0 L 0.875 -9 L 5 -9 C 6.09375 -9 6.921875 -8.804688 7.484375 -8.421875 C 8.046875 -8.046875 8.328125 -7.484375 8.328125 -6.734375 C 8.328125 -6.222656 8.1875 -5.789062 7.90625 -5.4375 C 7.625 -5.09375 7.191406 -4.859375 6.609375 -4.734375 C 7.335938 -4.648438 7.890625 -4.421875 8.265625 -4.046875 C 8.648438 -3.671875 8.84375 -3.175781 8.84375 -2.5625 Z M 6.4375 -6.484375 C 6.4375 -6.890625 6.304688 -7.175781 6.046875 -7.34375 C 5.796875 -7.507812 5.414062 -7.59375 4.90625 -7.59375 L 2.765625 -7.59375 L 2.765625 -5.375 L 4.921875 -5.375 C 5.453125 -5.375 5.835938 -5.460938 6.078125 -5.640625 C 6.316406 -5.828125 6.4375 -6.109375 6.4375 -6.484375 Z M 6.953125 -2.71875 C 6.953125 -3.5625 6.347656 -3.984375 5.140625 -3.984375 L 2.765625 -3.984375 L 2.765625 -1.40625 L 5.21875 -1.40625 C 5.820312 -1.40625 6.257812 -1.515625 6.53125 -1.734375 C 6.8125 -1.953125 6.953125 -2.28125 6.953125 -2.71875 Z M 6.953125 -2.71875 "/></g></g></g><g fill="#ffffff" fill-opacity="1"><g transform="translate(88.193593, 22.62471)"><g/></g></g><g fill="#ffffff" fill-opacity="1"><g transform="translate(91.95509, 22.62471)"><g><path d="M 8.8125 -4.59375 C 8.8125 -3.664062 8.628906 -2.851562 8.265625 -2.15625 C 7.910156 -1.457031 7.398438 -0.921875 6.734375 -0.546875 C 6.066406 -0.179688 5.300781 0 4.4375 0 L 1.078125 0 L 1.078125 -9 L 4.046875 -9 C 5.566406 -9 6.738281 -8.613281 7.5625 -7.84375 C 8.394531 -7.082031 8.8125 -6 8.8125 -4.59375 Z M 7.59375 -4.59375 C 7.59375 -5.707031 7.285156 -6.554688 6.671875 -7.140625 C 6.066406 -7.722656 5.179688 -8.015625 4.015625 -8.015625 L 2.296875 -8.015625 L 2.296875 -0.984375 L 4.296875 -0.984375 C 4.953125 -0.984375 5.53125 -1.125 6.03125 -1.40625 C 6.53125 -1.695312 6.914062 -2.113281 7.1875 -2.65625 C 7.457031 -3.207031 7.59375 -3.851562 7.59375 -4.59375 Z M 7.59375 -4.59375 "/></g></g></g><g fill="#ffffff" fill-opacity="1"><g transform="translate(101.523146, 22.62471)"><g><path d="M 1.078125 0 L 1.078125 -9 L 7.90625 -9 L 7.90625 -8 L 2.296875 -8 L 2.296875 -5.109375 L 7.515625 -5.109375 L 7.515625 -4.125 L 2.296875 -4.125 L 2.296875 -1 L 8.15625 -1 L 8.15625 0 Z M 1.078125 0 "/></g></g></g><g fill="#ffffff" fill-opacity="1"><g transform="translate(110.370168, 22.62471)"><g><path d="M 4.59375 -8 L 4.59375 0 L 3.390625 0 L 3.390625 -8 L 0.296875 -8 L 0.296875 -9 L 7.6875 -9 L 7.6875 -8 Z M 4.59375 -8 "/></g></g></g><g fill="#ffffff" fill-opacity="1"><g transform="translate(118.483392, 22.62471)"><g><path d="M 7.453125 0 L 6.421875 -2.625 L 2.328125 -2.625 L 1.296875 0 L 0.03125 0 L 3.703125 -9 L 5.078125 -9 L 8.703125 0 Z M 4.375 -8.078125 L 4.3125 -7.90625 C 4.207031 -7.550781 4.050781 -7.097656 3.84375 -6.546875 L 2.6875 -3.578125 L 6.0625 -3.578125 L 4.90625 -6.546875 C 4.78125 -6.847656 4.660156 -7.179688 4.546875 -7.546875 Z M 4.375 -8.078125 "/></g></g></g><g fill="#ffffff" fill-opacity="1"><g transform="translate(127.330413, 22.62471)"><g><path d="M 1.203125 0 L 1.203125 -9 L 2.421875 -9 L 2.421875 0 Z M 1.203125 0 "/></g></g></g><g fill="#ffffff" fill-opacity="1"><g transform="translate(131.091908, 22.62471)"><g><path d="M 1.078125 0 L 1.078125 -9 L 2.296875 -9 L 2.296875 -1 L 6.84375 -1 L 6.84375 0 Z M 1.078125 0 "/></g></g></g><g fill="#ffffff" fill-opacity="1"><g transform="translate(138.490482, 22.62471)"><g><path d="M 8.125 -2.484375 C 8.125 -1.648438 7.796875 -1.003906 7.140625 -0.546875 C 6.492188 -0.0976562 5.582031 0.125 4.40625 0.125 C 2.21875 0.125 0.945312 -0.632812 0.59375 -2.15625 L 1.78125 -2.390625 C 1.914062 -1.847656 2.203125 -1.453125 2.640625 -1.203125 C 3.085938 -0.953125 3.691406 -0.828125 4.453125 -0.828125 C 5.234375 -0.828125 5.835938 -0.960938 6.265625 -1.234375 C 6.703125 -1.503906 6.921875 -1.898438 6.921875 -2.421875 C 6.921875 -2.710938 6.851562 -2.945312 6.71875 -3.125 C 6.582031 -3.3125 6.390625 -3.460938 6.140625 -3.578125 C 5.898438 -3.703125 5.613281 -3.804688 5.28125 -3.890625 C 4.945312 -3.972656 4.570312 -4.0625 4.15625 -4.15625 C 3.445312 -4.3125 2.910156 -4.46875 2.546875 -4.625 C 2.179688 -4.78125 1.890625 -4.953125 1.671875 -5.140625 C 1.460938 -5.335938 1.300781 -5.566406 1.1875 -5.828125 C 1.070312 -6.085938 1.015625 -6.382812 1.015625 -6.71875 C 1.015625 -7.488281 1.304688 -8.082031 1.890625 -8.5 C 2.484375 -8.914062 3.332031 -9.125 4.4375 -9.125 C 5.457031 -9.125 6.238281 -8.96875 6.78125 -8.65625 C 7.320312 -8.34375 7.695312 -7.8125 7.90625 -7.0625 L 6.71875 -6.859375 C 6.582031 -7.328125 6.328125 -7.671875 5.953125 -7.890625 C 5.585938 -8.109375 5.078125 -8.21875 4.421875 -8.21875 C 3.703125 -8.21875 3.148438 -8.097656 2.765625 -7.859375 C 2.390625 -7.617188 2.203125 -7.257812 2.203125 -6.78125 C 2.203125 -6.507812 2.273438 -6.28125 2.421875 -6.09375 C 2.566406 -5.914062 2.773438 -5.765625 3.046875 -5.640625 C 3.328125 -5.515625 3.882812 -5.359375 4.71875 -5.171875 C 4.988281 -5.109375 5.257812 -5.046875 5.53125 -4.984375 C 5.8125 -4.921875 6.078125 -4.84375 6.328125 -4.75 C 6.578125 -4.65625 6.8125 -4.546875 7.03125 -4.421875 C 7.25 -4.296875 7.4375 -4.144531 7.59375 -3.96875 C 7.757812 -3.789062 7.890625 -3.578125 7.984375 -3.328125 C 8.078125 -3.085938 8.125 -2.804688 8.125 -2.484375 Z M 8.125 -2.484375 "/></g></g></g></svg>