<svg xmlns="http://www.w3.org/2000/svg" xmlns:xlink="http://www.w3.org/1999/xlink" width="40" zoomAndPan="magnify" viewBox="0 0 30 30.000001" height="40" preserveAspectRatio="xMidYMid meet" version="1.0"><defs><clipPath id="id1"><path d="M 0.484375 0 L 29.515625 0 L 29.515625 29 L 0.484375 29 Z M 0.484375 0 " clip-rule="nonzero"/></clipPath></defs><g clip-path="url(#id1)"><path fill="#24292e" d="M 15 0.242188 C 6.984375 0.242188 0.484375 6.742188 0.484375 14.757812 C 0.484375 21.558594 5.167969 27.25 11.480469 28.828125 C 11.414062 28.628906 11.371094 28.402344 11.371094 28.121094 L 11.371094 25.640625 C 10.78125 25.640625 9.792969 25.640625 9.546875 25.640625 C 8.554688 25.640625 7.671875 25.214844 7.242188 24.417969 C 6.765625 23.539062 6.683594 22.1875 5.507812 21.363281 C 5.15625 21.089844 5.421875 20.777344 5.824219 20.820312 C 6.570312 21.027344 7.1875 21.539062 7.765625 22.296875 C 8.34375 23.054688 8.617188 23.226562 9.699219 23.226562 C 10.222656 23.226562 11.003906 23.195312 11.742188 23.082031 C 12.140625 22.074219 12.828125 21.144531 13.664062 20.707031 C 8.832031 20.210938 6.523438 17.804688 6.523438 14.539062 C 6.523438 13.132812 7.121094 11.773438 8.140625 10.628906 C 7.804688 9.492188 7.386719 7.171875 8.269531 6.289062 C 10.441406 6.289062 11.757812 7.699219 12.074219 8.082031 C 13.15625 7.710938 14.347656 7.5 15.597656 7.5 C 16.851562 7.5 18.046875 7.710938 19.132812 8.085938 C 19.445312 7.707031 20.761719 6.289062 22.941406 6.289062 C 23.828125 7.175781 23.402344 9.503906 23.066406 10.636719 C 24.078125 11.78125 24.671875 13.136719 24.671875 14.539062 C 24.671875 17.804688 22.367188 20.207031 17.542969 20.707031 C 18.871094 21.398438 19.839844 23.347656 19.839844 24.8125 L 19.839844 28.121094 C 19.839844 28.246094 19.8125 28.339844 19.796875 28.445312 C 25.453125 26.464844 29.515625 21.09375 29.515625 14.757812 C 29.515625 6.742188 23.015625 0.242188 15 0.242188 Z M 15 0.242188 " fill-opacity="1" fill-rule="nonzero"/></g></svg>